[Header]
FileType HTR
DataType HTRS
FileVersion 1
NumSegments 64
NumFrames 4
DataFrameRate 24
EulerRotationOrder ZYX
CalibrationUnits mm
RotationUnits Degrees
GlobalAxisofGravity Y
BoneLengthAxis Y
ScaleFactor 1.0
[SegmentNames&Hierarchy]
Hips	GLOBAL
Spine	Hips
Spine1	Spine
Spine2	Spine1
Neck	Spine2
Head	Neck
LeftEye	Head
RightEye	Head
LeftShoulder	Spine2
LeftArm	LeftShoulder
LeftForeArm	LeftArm
LeftHand	LeftForeArm
LeftHandThumb1	LeftHand
LeftHandThumb2	LeftHandThumb1
LeftHandThumb3	LeftHandThumb2
LeftHandThumb4	LeftHandThumb3
LeftHandIndex1	LeftHand
LeftHandIndex2	LeftHandIndex1
LeftHandIndex3	LeftHandIndex2
LeftHandIndex4	LeftHandIndex3
LeftHandMiddle1	LeftHand
LeftHandMiddle2	LeftHandMiddle1
LeftHandMiddle3	LeftHandMiddle2
LeftHandMiddle4	LeftHandMiddle3
LeftHandRing1	LeftHand
LeftHandRing2	LeftHandRing1
LeftHandRing3	LeftHandRing2
LeftHandRing4	LeftHandRing3
LeftHandPinky1	LeftHand
LeftHandPinky2	LeftHandPinky1
LeftHandPinky3	LeftHandPinky2
LeftHandPinky4	LeftHandPinky3
RightShoulder	Spine2
RightArm	RightShoulder
RightForeArm	RightArm
RightHand	RightForeArm
RightHandPinky1	RightHand
RightHandPinky2	RightHandPinky1
RightHandPinky3	RightHandPinky2
RightHandPinky4	RightHandPinky3
RightHandRing1	RightHand
RightHandRing2	RightHandRing1
RightHandRing3	RightHandRing2
RightHandRing4	RightHandRing3
RightHandMiddle1	RightHand
RightHandMiddle2	RightHandMiddle1
RightHandMiddle3	RightHandMiddle2
RightHandMiddle4	RightHandMiddle3
RightHandIndex1	RightHand
RightHandIndex2	RightHandIndex1
RightHandIndex3	RightHandIndex2
RightHandIndex4	RightHandIndex3
RightHandThumb1	RightHand
RightHandThumb2	RightHandThumb1
RightHandThumb3	RightHandThumb2
RightHandThumb4	RightHandThumb3
LeftUpLeg	Hips
LeftLeg	LeftUpLeg
LeftFoot	LeftLeg
LeftToeBase	LeftFoot
RightUpLeg	Hips
RightLeg	RightUpLeg
RightFoot	RightLeg
RightToeBase	RightFoot
[BasePosition]
Hips	0	0	0	0	0	0	1
Spine	0	0	0	0	0	0	1
Spine1	0	0	0	0	0	0	1
Spine2	0	0	0	0	0	0	1
Neck	0	0	0	0	0	0	1
Head	0	0	0	0	0	0	1
LeftEye	0	0	0	0	0	0	1
RightEye	0	0	0	0	0	0	1
LeftShoulder	0	0	0	0	0	0	1
LeftArm	0	0	0	0	0	0	1
LeftForeArm	0	0	0	0	0	0	1
LeftHand	0	0	0	0	0	0	1
LeftHandThumb1	0	0	0	0	0	0	1
LeftHandThumb2	0	0	0	0	0	0	1
LeftHandThumb3	0	0	0	0	0	0	1
LeftHandThumb4	0	0	0	0	0	0	1
LeftHandIndex1	0	0	0	0	0	0	1
LeftHandIndex2	0	0	0	0	0	0	1
LeftHandIndex3	0	0	0	0	0	0	1
LeftHandIndex4	0	0	0	0	0	0	1
LeftHandMiddle1	0	0	0	0	0	0	1
LeftHandMiddle2	0	0	0	0	0	0	1
LeftHandMiddle3	0	0	0	0	0	0	1
LeftHandMiddle4	0	0	0	0	0	0	1
LeftHandRing1	0	0	0	0	0	0	1
LeftHandRing2	0	0	0	0	0	0	1
LeftHandRing3	0	0	0	0	0	0	1
LeftHandRing4	0	0	0	0	0	0	1
LeftHandPinky1	0	0	0	0	0	0	1
LeftHandPinky2	0	0	0	0	0	0	1
LeftHandPinky3	0	0	0	0	0	0	1
LeftHandPinky4	0	0	0	0	0	0	1
RightShoulder	0	0	0	0	0	0	1
RightArm	0	0	0	0	0	0	1
RightForeArm	0	0	0	0	0	0	1
RightHand	0	0	0	0	0	0	1
RightHandPinky1	0	0	0	0	0	0	1
RightHandPinky2	0	0	0	0	0	0	1
RightHandPinky3	0	0	0	0	0	0	1
RightHandPinky4	0	0	0	0	0	0	1
RightHandRing1	0	0	0	0	0	0	1
RightHandRing2	0	0	0	0	0	0	1
RightHandRing3	0	0	0	0	0	0	1
RightHandRing4	0	0	0	0	0	0	1
RightHandMiddle1	0	0	0	0	0	0	1
RightHandMiddle2	0	0	0	0	0	0	1
RightHandMiddle3	0	0	0	0	0	0	1
RightHandMiddle4	0	0	0	0	0	0	1
RightHandIndex1	0	0	0	0	0	0	1
RightHandIndex2	0	0	0	0	0	0	1
RightHandIndex3	0	0	0	0	0	0	1
RightHandIndex4	0	0	0	0	0	0	1
RightHandThumb1	0	0	0	0	0	0	1
RightHandThumb2	0	0	0	0	0	0	1
RightHandThumb3	0	0	0	0	0	0	1
RightHandThumb4	0	0	0	0	0	0	1
LeftUpLeg	0	0	0	0	0	0	1
LeftLeg	0	0	0	0	0	0	1
LeftFoot	0	0	0	0	0	0	1
LeftToeBase	0	0	0	0	0	0	1
RightUpLeg	0	0	0	0	0	0	1
RightLeg	0	0	0	0	0	0	1
RightFoot	0	0	0	0	0	0	1
RightToeBase	0	0	0	0	0	0	1
[Hips]
20	56.04615021	1092.341187	-2.118128538	2.908938646	-9.665582657	4.720336437	1.0
21	38.74387741	1155.977661	-6.165692806	4.325773239	1.969542623	4.423108101	1.0
22	36.53507996	1216.534668	-23.44360733	7.647407532	8.264793396	1.813184857	1.0
23	39.91689301	1251.52124	-42.39472198	10.90397167	9.243393898	-0.624612689	1.0
[Spine]
20	0	101.8159943	1.315000057	5.933088779	2.365907431	-3.050836325	1.0
21	0	101.8159943	1.315000057	7.031484604	-0.4295595884	-5.71795702	1.0
22	0	101.8159943	1.315000057	9.442200661	-2.283482552	-5.902138233	1.0
23	0	101.8159943	1.315000057	12.23116875	-2.958295345	-4.329228878	1.0
[Spine1]
20	0	100.8349991	-10.00800037	1.961781502	0.4690313637	0.3694125414	1.0
21	0	100.8349991	-10.00800037	2.044346809	-0.2854293585	-0.4302491546	1.0
22	0	100.8349991	-10.00800037	2.790113211	-0.3830168843	-0.8255317211	1.0
23	0	100.8349991	-10.00800037	3.872872591	0.05251700804	-0.8463155627	1.0
[Spine2]
20	0	91	-13.73399925	1.93174088	0.5049925447	0.3882717788	1.0
21	0	91	-13.73399925	2.023998499	-0.2838132083	-0.4087930322	1.0
22	0	91	-13.73399925	2.7603724	-0.404111445	-0.8304210901	1.0
23	0	91	-13.73399925	3.822143555	0.02891546302	-0.9101040959	1.0
[Neck]
20	0	166.7169952	-25.16200066	12.95110989	-0.4939564764	-1.939165831	1.0
21	0	166.7169952	-25.16200066	16.30669403	-0.02341230214	-1.950589418	1.0
22	0	166.7169952	-25.16200066	18.02357864	0.3499579728	-2.29317832	1.0
23	0	166.7169952	-25.16200066	18.92281914	0.2776681483	-2.559670448	1.0
[Head]
20	0	96.17900085	16.84999847	-11.0605669	-4.67780447	2.188308001	1.0
21	0	96.17900085	16.84999847	-8.615303993	-7.392055988	9.115810394	1.0
22	0	96.17900085	16.84999847	-11.19269562	-7.718087196	12.90058899	1.0
23	0	96.17900085	16.84999847	-17.75404358	-6.183531761	13.70958233	1.0
[LeftEye]
20	30.6760006	64.09500122	92.83599854	0	0	0	1.0
21	30.6760006	64.09500122	92.83599854	0	0	0	1.0
22	30.6760006	64.09500122	92.83599854	0	0	0	1.0
23	30.6760006	64.09500122	92.83599854	0	0	0	1.0
[RightEye]
20	-30.6760006	64.09500122	92.83499908	0	0	0	1.0
21	-30.6760006	64.09500122	92.83499908	0	0	0	1.0
22	-30.6760006	64.09500122	92.83499908	0	0	0	1.0
23	-30.6760006	64.09500122	92.83499908	0	0	0	1.0
[LeftShoulder]
20	45.70400238	109.4599991	-26.28000069	5.323038101	-33.28980637	-3.854326248	1.0
21	45.70400238	109.4599991	-26.28000069	4.486017227	-34.48152161	0.03452912346	1.0
22	45.70400238	109.4599991	-26.28000069	2.671929598	-29.3747406	6.805769444	1.0
23	45.70400238	109.4599991	-26.28000069	1.302359223	-19.76063156	15.12947083	1.0
[LeftArm]
20	105.923996	-5.24600029	-22.32099915	41.76342392	-7.500916958	-9.731022835	1.0
21	105.923996	-5.24600029	-22.32099915	34.56939697	-18.97569466	7.997792244	1.0
22	105.923996	-5.24600029	-22.32099915	17.50915337	-28.64177132	24.93603516	1.0
23	105.923996	-5.24600029	-22.32099915	-4.243702888	-29.0862999	36.0057106	1.0
[LeftForeArm]
20	278.414978	-0.0009999999311	0	1.568338462e-06	-21.09727478	-0.0002107173641	1.0
21	278.414978	-0.0009999999311	0	-3.424874194e-06	-22.71882057	-0.0002076143574	1.0
22	278.414978	-0.0009999999311	0	1.166570291e-05	-27.08564377	-0.0002095494565	1.0
23	278.414978	-0.0009999999311	0	-1.174552472e-05	-34.00683975	-0.0002192805405	1.0
[LeftHand]
20	283.2879944	0	0	-52.8116188	-19.08547974	-17.43671608	1.0
21	283.2879944	0	0	-48.0262146	-15.11206818	-17.13344383	1.0
22	283.2879944	0	0	-42.23002625	-12.83956146	-17.36244965	1.0
23	283.2879944	0	0	-38.17123032	-10.59019089	-14.19791317	1.0
[LeftHandThumb1]
20	24.6609993	-15.75	26.8239994	-0.4839684367	2.214278698	4.822878361	1.0
21	24.6609993	-15.75	26.8239994	-0.6282936335	1.843937635	4.699230194	1.0
22	24.6609993	-15.75	26.8239994	-1.03554225	0.7860304117	4.352577209	1.0
23	24.6609993	-15.75	26.8239994	-1.609945297	-0.735755682	3.87163949	1.0
[LeftHandThumb2]
20	32.29800034	-18.64699936	18.64699936	1.906913757	19.49844933	11.74046803	1.0
21	32.29800034	-18.64699936	18.64699936	1.362135768	18.05932045	9.031747818	1.0
22	32.29800034	-18.64699936	18.64699936	0.8207064867	14.14140129	8.805073738	1.0
23	32.29800034	-18.64699936	18.64699936	0.3109444976	8.621865273	9.706952095	1.0
[LeftHandThumb3]
20	26.52600098	-15.31499958	15.31499958	-10.07447815	21.36413002	16.05791283	1.0
21	26.52600098	-15.31499958	15.31499958	-10.32515621	21.57025146	19.38920784	1.0
22	26.52600098	-15.31499958	15.31499958	-12.28553867	16.78358269	19.03809738	1.0
23	26.52600098	-15.31499958	15.31499958	-15.16364861	8.576278687	16.11838913	1.0
[LeftHandThumb4]
20	19.54599953	-11.28499985	11.28499985	0	0	0	1.0
21	19.54599953	-11.28499985	11.28499985	0	0	0	1.0
22	19.54599953	-11.28499985	11.28499985	0	0	0	1.0
23	19.54599953	-11.28499985	11.28499985	0	0	0	1.0
[LeftHandIndex1]
20	91.09299469	-5.170999527	22.60099792	1.050697207	-1.468902826	5.295320988	1.0
21	91.09299469	-5.170999527	22.60099792	0.4313534498	-3.122077465	1.764740705	1.0
22	91.09299469	-5.170999527	22.60099792	0.1549053043	-5.898698807	-0.5256830454	1.0
23	91.09299469	-5.170999527	22.60099792	0.3724474013	-8.635570526	-3.03137517	1.0
[LeftHandIndex2]
20	36.76399994	0	0	-0.2535028756	1.702464461	-16.93801498	1.0
21	36.76399994	0	0	-0.2452518642	1.675148606	-16.65796471	1.0
22	36.76399994	0	0	-0.2475940287	1.682947516	-16.73793411	1.0
23	36.76399994	0	0	-0.2536030114	1.70281291	-16.94143867	1.0
[LeftHandIndex3]
20	28.83100128	0	0	-0.0513497144	0.7730795145	-7.600217819	1.0
21	28.83100128	0	0	-0.04764667526	0.7447456121	-7.320316792	1.0
22	28.83100128	0	0	-0.04868504405	0.7528512478	-7.400363922	1.0
23	28.83100128	0	0	-0.0514046587	0.7734228373	-7.603869438	1.0
[LeftHandIndex4]
20	23.92700005	0	0	0	0	0	1.0
21	23.92700005	0	0	0	0	0	1.0
22	23.92700005	0	0	0	0	0	1.0
23	23.92700005	0	0	0	0	0	1.0
[LeftHandMiddle1]
20	95.33399963	0	0	0.126835674	-1.042121768	1.330644965	1.0
21	95.33399963	0	0	-0.06557544321	-0.6675350666	-3.16496563	1.0
22	95.33399963	0	0	-0.1562033594	-0.4376024306	-5.030656815	1.0
23	95.33399963	0	0	-0.2188194692	0.02411201969	-6.216665268	1.0
[LeftHandMiddle2]
20	36.98199844	0	0	-0.2551123202	1.707705975	-16.99182892	1.0
21	36.98199844	0	0	-0.2516950667	1.696498752	-16.87680817	1.0
22	36.98199844	0	0	-0.2577002645	1.71616292	-17.07849503	1.0
23	36.98199844	0	0	-0.2661638558	1.743472576	-17.35890007	1.0
[LeftHandMiddle3]
20	29.50900078	0	0	-0.2867360413	1.80790925	-18.02251816	1.0
21	29.50900078	0	0	-0.2831560373	1.796889663	-17.90893555	1.0
22	29.50900078	0	0	-0.2894743681	1.816304922	-18.10921288	1.0
23	29.50900078	0	0	-0.2982212305	1.84283483	-18.38335037	1.0
[LeftHandMiddle4]
20	28.3390007	0	0	0	0	0	1.0
21	28.3390007	0	0	0	0	0	1.0
22	28.3390007	0	0	0	0	0	1.0
23	28.3390007	0	0	0	0	0	1.0
[LeftHandRing1]
20	91.04499817	-0.4390000105	-18.65100098	-0.3205286264	1.404732704	-8.019234657	1.0
21	91.04499817	-0.4390000105	-18.65100098	-0.4718548656	2.104168177	-10.64141273	1.0
22	91.04499817	-0.4390000105	-18.65100098	-0.5469963551	4.081211567	-11.88303185	1.0
23	91.04499817	-0.4390000105	-18.65100098	-0.5836256146	6.830030918	-12.58715534	1.0
[LeftHandRing2]
20	31.54000092	0	0	-0.4063411057	2.14071846	-21.49349403	1.0
21	31.54000092	0	0	-0.413808167	2.159570694	-21.69240952	1.0
22	31.54000092	0	0	-0.4183371365	2.170923471	-21.81245804	1.0
23	31.54000092	0	0	-0.418438077	2.171164513	-21.8149662	1.0
[LeftHandRing3]
20	29.37700081	0	0	-0.3004615903	1.849533796	-18.4526577	1.0
21	29.37700081	0	0	-0.3068838418	1.868674636	-18.65065765	1.0
22	29.37700081	0	0	-0.310680598	1.879873633	-18.76676559	1.0
23	29.37700081	0	0	-0.3107358813	1.880051374	-18.76865196	1.0
[LeftHandRing4]
20	26.47500038	0	0	0	0	0	1.0
21	26.47500038	0	0	0	0	0	1.0
22	26.47500038	0	0	0	0	0	1.0
23	26.47500038	0	0	0	0	0	1.0
[LeftHandPinky1]
20	80.77799988	-4.887000084	-38.06099701	-1.556393504	2.06618309	-21.77773857	1.0
21	80.77799988	-4.887000084	-38.06099701	-1.647197485	1.920693636	-20.88237762	1.0
22	80.77799988	-4.887000084	-38.06099701	-1.562127471	5.645849228	-19.68254471	1.0
23	80.77799988	-4.887000084	-38.06099701	-1.412106752	11.2012701	-18.37836075	1.0
[LeftHandPinky2]
20	36	0	0	-0.2976691127	1.841178179	-18.36623955	1.0
21	36	0	0	-0.3081498444	1.872413158	-18.68947411	1.0
22	36	0	0	-0.3102025688	1.878458261	-18.75206757	1.0
23	36	0	0	-0.3013508618	1.852210164	-18.48025703	1.0
[LeftHandPinky3]
20	21.14200211	0	0	-0.2690815032	1.752751231	-17.45428848	1.0
21	21.14200211	0	0	-0.2788205743	1.783444047	-17.77031898	1.0
22	21.14200211	0	0	-0.2807349861	1.789389253	-17.83158875	1.0
23	21.14200211	0	0	-0.2722935379	1.762943029	-17.5593338	1.0
[LeftHandPinky4]
20	19.75699997	0	0	0	0	0	1.0
21	19.75699997	0	0	0	0	0	1.0
22	19.75699997	0	0	0	0	0	1.0
23	19.75699997	0	0	0	0	0	1.0
[RightShoulder]
20	-45.70000076	109.4620056	-26.28000069	0.5507849455	8.454239845	-20.9655056	1.0
21	-45.70000076	109.4620056	-26.28000069	1.14014852	3.498787403	-28.15468216	1.0
22	-45.70000076	109.4620056	-26.28000069	0.7620146871	4.224071026	-31.58768463	1.0
23	-45.70000076	109.4620056	-26.28000069	-0.9388732314	9.663832664	-32.86487198	1.0
[RightArm]
20	-105.9280014	-5.248000145	-22.32099915	-26.70186424	47.97649384	17.52568436	1.0
21	-105.9280014	-5.248000145	-22.32099915	-26.75780487	32.6189537	22.52448273	1.0
22	-105.9280014	-5.248000145	-22.32099915	-20.84878349	11.18750095	23.94549751	1.0
23	-105.9280014	-5.248000145	-22.32099915	-13.51165676	-10.32708263	22.72428513	1.0
[RightForeArm]
20	-278.414978	0	0	-1.292016714e-05	69.33495331	-6.796761227e-06	1.0
21	-278.414978	0	0	-3.503612106e-06	69.55383301	-5.4038901e-06	1.0
22	-278.414978	0	0	1.2714479e-06	63.13143921	4.671112947e-06	1.0
23	-278.414978	0	0	-9.600135854e-06	53.0069313	-7.009738056e-06	1.0
[RightHand]
20	-283.2879944	0	0.0009999999311	-6.298048496	1.495010018	33.09009171	1.0
21	-283.2879944	0	0.0009999999311	-7.567358494	3.048032284	23.60947609	1.0
22	-283.2879944	0	0.0009999999311	-11.40494633	6.098924637	12.83813095	1.0
23	-283.2879944	0	0.0009999999311	-15.59093285	7.470600605	3.602071762	1.0
[RightHandPinky1]
20	-80.76699829	-4.885000229	-38.06000137	-1.279031634	-9.688564301	24.1425972	1.0
21	-80.76699829	-4.885000229	-38.06000137	-1.082451224	-12.74767303	21.58825684	1.0
22	-80.76699829	-4.885000229	-38.06000137	-0.8131124377	-15.88056183	18.18964958	1.0
23	-80.76699829	-4.885000229	-38.06000137	-0.6606594324	-18.39451599	16.54858971	1.0
[RightHandPinky2]
20	-36	0	0.0009999999311	-0.3010726273	-1.644024968	20.77411461	1.0
21	-36	0	0.0009999999311	-0.2731736898	-1.568434	19.77855492	1.0
22	-36	0	0.0009999999311	-0.2568283379	-1.522152305	19.17186928	1.0
23	-36	0	0.0009999999311	-0.2694733441	-1.558111191	19.64308929	1.0
[RightHandPinky3]
20	-21.14200211	0	0	-0.2781314552	-1.582146645	19.93920708	1.0
21	-21.14200211	0	0	-0.2523574829	-1.509276509	18.9840641	1.0
22	-21.14200211	0	0	-0.2369729429	-1.46381247	18.39116478	1.0
23	-21.14200211	0	0	-0.2485453933	-1.498131633	18.83854866	1.0
[RightHandPinky4]
20	-19.75699997	0	0	0	0	0	1.0
21	-19.75699997	0	0	0	0	0	1.0
22	-19.75699997	0	0	0	0	0	1.0
23	-19.75699997	0	0	0	0	0	1.0
[RightHandRing1]
20	-91.03599548	-0.4390000105	-18.65100098	-0.8884311914	-2.33395505	18.05220795	1.0
21	-91.03599548	-0.4390000105	-18.65100098	-0.8683677912	-3.025905132	17.724123	1.0
22	-91.03599548	-0.4390000105	-18.65100098	-0.8506544232	-4.367785454	17.4395256	1.0
23	-91.03599548	-0.4390000105	-18.65100098	-0.808360815	-6.440013885	16.83574677	1.0
[RightHandRing2]
20	-31.54000092	0	0	-0.3698473573	-1.815082073	23.03302765	1.0
21	-31.54000092	0	0	-0.3778525293	-1.833803892	23.28423882	1.0
22	-31.54000092	0	0	-0.3806134164	-1.840156317	23.370327	1.0
23	-31.54000092	0	0	-0.3765082955	-1.830636024	23.24181175	1.0
[RightHandRing3]
20	-29.37700081	0	0	-0.2792984545	-1.585368872	19.98147011	1.0
21	-29.37700081	0	0	-0.286200285	-1.604207158	20.22920418	1.0
22	-29.37700081	0	0	-0.2885176539	-1.610506058	20.3123188	1.0
23	-29.37700081	0	0	-0.2849499881	-1.600819468	20.18469048	1.0
[RightHandRing4]
20	-26.47500038	0	0	0	0	0	1.0
21	-26.47500038	0	0	0	0	0	1.0
22	-26.47500038	0	0	0	0	0	1.0
23	-26.47500038	0	0	0	0	0	1.0
[RightHandMiddle1]
20	-95.32500458	0	0	-0.5229523182	-2.038803816	11.91769409	1.0
21	-95.32500458	0	0	-0.5593109131	-1.166051984	12.59387302	1.0
22	-95.32500458	0	0	-0.6950317025	-0.2539830506	14.97877979	1.0
23	-95.32500458	0	0	-0.7219588757	-0.281080097	15.43509388	1.0
[RightHandMiddle2]
20	-36.98199844	0	0	-0.5034911633	-2.101644516	26.94174004	1.0
21	-36.98199844	0	0	-0.3584839702	-1.788133025	22.67146873	1.0
22	-36.98199844	0	0	-0.255048424	-1.517031789	19.08566666	1.0
23	-36.98199844	0	0	-0.2229299694	-1.420844316	17.83265877	1.0
[RightHandMiddle3]
20	-29.50900078	0	0	-0.5411221385	-2.176111221	27.95095253	1.0
21	-29.50900078	0	0	-0.3909027278	-1.865807772	23.68868637	1.0
22	-29.50900078	0	0	-0.2829689085	-1.597450256	20.11379433	1.0
23	-29.50900078	0	0	-0.2490909994	-1.501767159	18.85967636	1.0
[RightHandMiddle4]
20	-28.3390007	0	0.0009999999311	0	0	0	1.0
21	-28.3390007	0	0.0009999999311	0	0	0	1.0
22	-28.3390007	0	0.0009999999311	0	0	0	1.0
23	-28.3390007	0	0.0009999999311	0	0	0	1.0
[RightHandIndex1]
20	-91.08300018	-5.167999744	22.60099792	-0.2578957379	6.403827667	8.024990082	1.0
21	-91.08300018	-5.167999744	22.60099792	-0.2632284164	8.709763527	8.738603592	1.0
22	-91.08300018	-5.167999744	22.60099792	-0.4150222838	10.88344574	12.20296669	1.0
23	-91.08300018	-5.167999744	22.60099792	-0.4832130969	12.91957664	14.12036133	1.0
[RightHandIndex2]
20	-36.76399994	0	0	-0.2976687551	-1.634985328	20.63503265	1.0
21	-36.76399994	0	0	-0.2467053682	-1.492731571	18.76823044	1.0
22	-36.76399994	0	0	-0.2113226503	-1.384278893	17.35881233	1.0
23	-36.76399994	0	0	-0.2005247772	-1.349254966	16.90622711	1.0
[RightHandIndex3]
20	-28.83100128	0	0	-0.0939931199	-0.929242909	11.55210972	1.0
21	-28.83100128	0	0	-0.067104958	-0.7862548232	9.755152702	1.0
22	-28.83100128	0	0	-0.04859615117	-0.6697666049	8.2987957	1.0
23	-28.83100128	0	0	-0.04187943414	-0.6220489144	7.703634262	1.0
[RightHandIndex4]
20	-23.92700005	0	0	0	0	0	1.0
21	-23.92700005	0	0	0	0	0	1.0
22	-23.92700005	0	0	0	0	0	1.0
23	-23.92700005	0	0	0	0	0	1.0
[RightHandThumb1]
20	-24.64799881	-15.72700024	26.82600021	-1.849449754	0.2622928917	-4.043988228	1.0
21	-24.64799881	-15.72700024	26.82600021	-2.288641214	1.529345751	-3.647072792	1.0
22	-24.64799881	-15.72700024	26.82600021	-2.926147938	3.363546848	-3.099114656	1.0
23	-24.64799881	-15.72700024	26.82600021	-3.625598669	5.365624905	-2.53525424	1.0
[RightHandThumb2]
20	-32.29800034	-18.64699936	18.64699936	18.10687447	-11.4815073	-25.93602562	1.0
21	-32.29800034	-18.64699936	18.64699936	17.42900085	-7.443650246	-28.96895218	1.0
22	-32.29800034	-18.64699936	18.64699936	16.6553669	-3.139081955	-30.22554016	1.0
23	-32.29800034	-18.64699936	18.64699936	16.09583664	-0.424648881	-27.99057579	1.0
[RightHandThumb3]
20	-26.52600098	-15.31399918	15.31399918	-17.75820541	-2.148516893	-27.05122757	1.0
21	-26.52600098	-15.31399918	15.31399918	-18.15730858	-0.418961525	-24.41711998	1.0
22	-26.52600098	-15.31399918	15.31399918	-17.01564217	-2.603104353	-21.61741829	1.0
23	-26.52600098	-15.31399918	15.31399918	-15.41028595	-6.028049469	-18.91504288	1.0
[RightHandThumb4]
20	-19.54599953	-11.28499985	11.28499985	0	0	0	1.0
21	-19.54599953	-11.28499985	11.28499985	0	0	0	1.0
22	-19.54599953	-11.28499985	11.28499985	0	0	0	1.0
23	-19.54599953	-11.28499985	11.28499985	0	0	0	1.0
[LeftUpLeg]
20	82.07800293	-67.51699829	-15.99599934	-65.16680908	7.79071331	0.4979594648	1.0
21	82.07800293	-67.51699829	-15.99599934	-80.19303131	0.3434146941	0.5281777382	1.0
22	82.07800293	-67.51699829	-15.99599934	-98.79779816	-2.585583925	0.6266502142	1.0
23	82.07800293	-67.51699829	-15.99599934	-117.2622528	-3.390496492	-2.851456404	1.0
[LeftLeg]
20	0	-443.7049866	2.845999956	84.69835663	-1.779258609	-4.272889614	1.0
21	0	-443.7049866	2.845999956	102.6300735	-1.269037604	-1.537263393	1.0
22	0	-443.7049866	2.845999956	119.4584122	-2.642803669	1.683760166	1.0
23	0	-443.7049866	2.845999956	132.5433502	-6.982658863	3.964979649	1.0
[LeftFoot]
20	0	-444.2789917	-29.8219986	13.06051064	0.9687902927	-5.509734631	1.0
21	0	-444.2789917	-29.8219986	3.408251047	0.3466130495	-2.16480279	1.0
22	0	-444.2789917	-29.8219986	-4.472155571	0.2101801187	3.07530117	1.0
23	0	-444.2789917	-29.8219986	-10.96211147	0.6615018249	6.763450623	1.0
[LeftToeBase]
20	0	-87.28699493	107.1060028	-2.850101709	1.120536012e-06	3.007641908e-06	1.0
21	0	-87.28699493	107.1060028	-4.17998457	1.523770834e-06	1.150419848e-06	1.0
22	0	-87.28699493	107.1060028	-5.39017868	6.934276939e-07	-1.739495701e-06	1.0
23	0	-87.28699493	107.1060028	-6.637727737	7.453530543e-06	-1.673171482e-06	1.0
[RightUpLeg]
20	-82.07800293	-67.51699829	-15.99599934	-19.25968552	-13.82969093	-7.257478714	1.0
21	-82.07800293	-67.51699829	-15.99599934	-21.91040421	-10.74579239	-5.617915154	1.0
22	-82.07800293	-67.51699829	-15.99599934	-32.15807724	-11.95129776	-5.173225403	1.0
23	-82.07800293	-67.51699829	-15.99599934	-47.65354919	-15.02883625	-5.043049335	1.0
[RightLeg]
20	0	-443.7049866	2.861999989	20.20816803	-0.6279773116	-2.919175148	1.0
21	0	-443.7049866	2.861999989	25.3142662	-4.889406204	-8.898406982	1.0
22	0	-443.7049866	2.861999989	36.63680267	-6.482834339	-6.476650238	1.0
23	0	-443.7049866	2.861999989	54.40076828	-6.920024872	-1.505473852	1.0
[RightFoot]
20	0	-444.2770081	-29.83799934	19.72810173	-2.180357933	12.08337688	1.0
21	0	-444.2770081	-29.83799934	22.93239212	-4.557538509	15.03137112	1.0
22	0	-444.2770081	-29.83799934	22.31705284	-2.697984457	11.08228493	1.0
23	0	-444.2770081	-29.83799934	16.61723137	-0.7460377216	8.294813156	1.0
[RightToeBase]
20	0	-87.28699493	107.1060028	-10.63840675	-1.795354024e-06	1.292388419e-07	1.0
21	0	-87.28699493	107.1060028	-5.912617207	1.981923106e-06	-3.048804274e-06	1.0
22	0	-87.28699493	107.1060028	-2.418480635	4.437674761e-06	1.695704782e-06	1.0
23	0	-87.28699493	107.1060028	-2.873027086	1.013034762e-06	1.691771104e-06	1.0
[EndOfFile]
